<?xml version="1.0" encoding="UTF-8"?>
<svg version="1.1" xmlns="http://www.w3.org/2000/svg" width="1080" height="1080">
<path d="M0 0 C356.4 0 712.8 0 1080 0 C1080 356.4 1080 712.8 1080 1080 C723.6 1080 367.2 1080 0 1080 C0 723.6 0 367.2 0 0 Z " fill="#000000" transform="translate(0,0)"/>
<path d="M0 0 C2.20646414 0.74406117 3.72258218 1.64661628 5.60620117 3.00708008 C6.60574829 3.72142212 6.60574829 3.72142212 7.62548828 4.45019531 C8.33713135 4.96783447 9.04877441 5.48547363 9.78198242 6.01879883 C11.31830094 7.12055632 12.85476321 8.22211337 14.39135742 9.32348633 C15.56601562 10.16991699 15.56601562 10.16991699 16.7644043 11.03344727 C19.64469814 13.10131959 22.54407316 15.141082 25.44580078 17.17871094 C31.9095972 21.71811905 38.32842078 26.31516227 44.71948242 30.95629883 C52.57693059 36.65927148 60.52889026 42.21927478 68.52612305 47.72436523 C73.21332088 50.96080126 77.84592375 54.23905467 82.38354492 57.68286133 C83.20274414 58.2990332 84.02194336 58.91520508 84.8659668 59.55004883 C86.39733133 60.70905668 87.91762596 61.88288788 89.42456055 63.07348633 C93.12966488 66.05370143 93.12966488 66.05370143 97.62963867 66.38208008 C100.97412101 64.10825611 104.21494603 61.75223044 107.40698242 59.26879883 C112.85737833 55.1036902 118.35969846 51.06418502 124.03198242 47.20629883 C136.23659013 38.8960474 148.24942701 30.3308516 160.19433594 21.65234375 C166.65013841 16.98315849 173.21061229 12.47556147 179.81469727 8.01904297 C180.56315918 7.51236084 181.31162109 7.00567871 182.08276367 6.48364258 C182.78481934 6.01039551 183.486875 5.53714844 184.21020508 5.04956055 C186.30294405 3.60905359 186.30294405 3.60905359 188.82495117 1.27270508 C191.09448242 -0.29370117 191.09448242 -0.29370117 193.44585705 0.00053692 C195.96705089 0.67234298 198.31888468 1.46776618 200.74201965 2.43208313 C201.64606033 2.78948578 202.55010101 3.14688843 203.48153687 3.51512146 C204.9505394 4.10342491 204.9505394 4.10342491 206.44921875 4.70361328 C207.49048416 5.11673767 208.53174957 5.52986206 209.60456848 5.95550537 C213.04692565 7.32260959 216.48676723 8.69592162 219.92651367 10.06958008 C222.32148082 11.02291117 224.71655788 11.97596615 227.11174011 12.92875671 C232.1338562 14.92763593 237.15479289 16.92943654 242.17480469 18.93359375 C247.96175703 21.24388897 253.75089259 23.54864149 259.54124242 25.85040694 C265.12696178 28.07098215 270.71107318 30.2955684 276.29450035 32.52190208 C278.66270215 33.46578106 281.03130143 34.4086634 283.40030861 35.35051918 C286.71877464 36.67051405 290.03539116 37.99505345 293.3515625 39.32080078 C294.32482483 39.70693039 295.29808716 40.09306 296.30084229 40.4908905 C297.21334244 40.85675262 298.12584259 41.22261475 299.06599426 41.5995636 C299.84855496 41.91167439 300.63111567 42.22378519 301.43739033 42.54535389 C305.05422502 44.12563255 308.56418228 45.94114876 312.09448242 47.70629883 C312.09448242 148.02629883 312.09448242 248.34629883 312.09448242 351.70629883 C305.35103687 347.4150153 298.81651508 343.17660524 292.40698242 338.45629883 C286.72890408 334.31581032 281.02303838 330.23168296 275.21948242 326.26879883 C269.23445035 322.18125911 263.27932962 318.05392602 257.34448242 313.89379883 C256.5041748 313.30477783 255.66386719 312.71575684 254.7980957 312.10888672 C253.08492234 310.9076418 251.37186956 309.70622487 249.65893555 308.50463867 C245.47275111 305.56904894 241.28344816 302.63791762 237.09448242 299.70629883 C236.27415527 299.13194092 235.45382812 298.55758301 234.60864258 297.96582031 C230.36841383 294.99699519 226.12698856 292.0299023 221.88354492 289.06567383 C214.20621324 283.70099134 206.53287834 278.33146356 198.90698242 272.89379883 C198.3244873 272.47904297 197.74199219 272.06428711 197.1418457 271.63696289 C193.21834047 268.83015687 193.21834047 268.83015687 192.09448242 267.70629883 C191.99818645 265.96003359 191.97260704 264.20983978 191.97422791 262.46092224 C191.97216591 260.75499405 191.97216591 260.75499405 191.97006226 259.01460266 C191.97365753 257.75584824 191.97725281 256.49709381 191.98095703 255.20019531 C191.980811 253.88331726 191.98066498 252.56643921 191.98051453 251.20965576 C191.98022656 247.58791615 191.98612318 243.96620937 191.99308848 240.34447742 C191.99932212 236.56347999 191.99992583 232.78248188 192.00111389 229.0014801 C192.00422718 221.83685593 192.01244053 214.67224693 192.02246338 207.50762945 C192.0336246 199.35298721 192.03913499 191.19834426 192.04415882 183.04369628 C192.05462315 166.2645549 192.07222253 149.4854288 192.09448242 132.70629883 C188.93803012 134.91434311 185.78185847 137.12278824 182.62573242 139.33129883 C181.74304688 139.94875977 180.86036133 140.5662207 179.95092773 141.20239258 C174.4896945 145.02425009 169.03686406 148.85764735 163.59448242 152.70629883 C157.43968991 157.05672119 151.2712915 161.38718999 145.09448242 165.70629883 C136.78940244 171.51421375 128.50334384 177.3484083 120.22827148 183.19897461 C117.95318918 184.80610941 115.67635857 186.41074385 113.39916992 188.01489258 C112.62661865 188.55936035 111.85406738 189.10382813 111.05810547 189.66479492 C109.58071405 190.70592563 108.10302937 191.74664038 106.625 192.78686523 C105.95879639 193.25656738 105.29259277 193.72626953 104.60620117 194.21020508 C103.98535645 194.64220215 103.36451172 195.07419922 102.72485352 195.51928711 C100.94930673 196.76760376 100.94930673 196.76760376 98.92651367 198.67114258 C97.09448242 199.70629883 97.09448242 199.70629883 94.75854492 199.19458008 C91.45449765 197.34877068 88.47180129 195.18342976 85.46948242 192.89379883 C79.61159362 188.50771192 73.65423456 184.30863254 67.59448242 180.20629883 C61.84699919 176.30838938 56.1677196 172.34970509 50.59448242 168.20629883 C44.30497548 163.53195294 37.86861219 159.10202216 31.38305664 154.70483398 C24.8184365 150.23929603 18.37185496 145.62454074 11.96826172 140.93139648 C10.92085815 140.16641846 10.92085815 140.16641846 9.85229492 139.38598633 C9.24530762 138.93980957 8.63832031 138.49363281 8.01293945 138.03393555 C5.76826431 136.48054493 3.43949062 135.10243128 1.09448242 133.70629883 C1.10039021 134.38860282 1.10629799 135.07090681 1.1123848 135.77388668 C1.25220668 152.40088502 1.32539933 169.02672013 1.32507706 185.65428066 C1.32651621 193.69550003 1.35023447 201.73548499 1.42700195 209.77636719 C1.49388222 216.7876193 1.51834881 223.79754044 1.49257731 230.80908638 C1.48040092 234.51993079 1.48898981 238.22802912 1.54843903 241.93847466 C1.61413745 246.08869193 1.58508659 250.23321146 1.54858398 254.38378906 C1.59927284 256.21475128 1.59927284 256.21475128 1.65098572 258.08270264 C1.53500694 263.38980419 1.28162216 266.46811042 -2.48084259 270.39236641 C-5.53344438 272.70569976 -8.62913962 274.72641262 -11.90551758 276.70629883 C-13.74740811 277.98967701 -15.58223757 279.28333429 -17.40551758 280.59301758 C-19.2373524 281.86211037 -21.0707229 283.12898903 -22.90551758 284.39379883 C-24.92262453 285.79067455 -26.9395483 287.18781481 -28.95629883 288.58520508 C-29.95483887 289.27630371 -30.95337891 289.96740234 -31.98217773 290.67944336 C-36.3621564 293.71623832 -40.72846802 296.77238746 -45.09301758 299.83129883 C-45.90577148 300.40066162 -46.71852539 300.97002441 -47.5559082 301.55664062 C-49.18863554 302.70049147 -50.82128566 303.84445252 -52.45385742 304.98852539 C-56.60338186 307.89591973 -60.75454064 310.80097884 -64.90551758 313.70629883 C-66.57219189 314.87295457 -68.23885856 316.03962123 -69.90551758 317.20629883 C-73.23885091 319.53963216 -76.57218424 321.87296549 -79.90551758 324.20629883 C-80.73172607 324.78468506 -81.55793457 325.36307129 -82.40917969 325.95898438 C-84.06348619 327.11691803 -85.717944 328.27463553 -87.37255859 329.43212891 C-91.7296489 332.48058745 -96.08347246 335.53357892 -100.43286133 338.59301758 C-101.33842773 339.22916992 -102.24399414 339.86532227 -103.17700195 340.52075195 C-104.90974703 341.73811644 -106.64157053 342.95679408 -108.37231445 344.17700195 C-109.15541992 344.72678711 -109.93852539 345.27657227 -110.74536133 345.84301758 C-111.42977295 346.32472412 -112.11418457 346.80643066 -112.81933594 347.30273438 C-115.12671996 348.85512182 -117.52083487 350.2754892 -119.90551758 351.70629883 C-119.90551758 251.38629883 -119.90551758 151.06629883 -119.90551758 47.70629883 C-110.90560293 43.2063415 -110.90560293 43.2063415 -106.85684204 41.5995636 C-105.94000641 41.23370148 -105.02317078 40.86783936 -104.07855225 40.4908905 C-103.10057678 40.10476089 -102.12260132 39.71863129 -101.11499023 39.32080078 C-100.06364899 38.90241943 -99.01230774 38.48403809 -97.92910767 38.05297852 C-94.47723075 36.68021751 -91.0234145 35.31240768 -87.56958008 33.94458008 C-85.16428612 32.98895527 -82.7591265 32.03299224 -80.35409546 31.07670593 C-74.68411236 28.82303322 -69.01294305 26.57237229 -63.34112871 24.32331294 C-52.56529513 20.05015504 -41.79249177 15.76936443 -31.01942062 11.48924828 C-27.47777945 10.08276447 -23.93555613 8.67775545 -20.39321899 7.27302551 C-18.2353653 6.41657141 -16.07751787 5.56010154 -13.91967773 4.70361328 C-12.92955688 4.31141098 -11.93943604 3.91920868 -10.91931152 3.51512146 C-10.01939484 3.15771881 -9.11947815 2.80031616 -8.19229126 2.43208313 C-7.01599875 1.96561355 -7.01599875 1.96561355 -5.81594276 1.48972034 C-1.58675998 -0.24457044 -1.58675998 -0.24457044 0 0 Z " fill="#FEFEFE" transform="translate(443.905517578125,364.293701171875)"/>
<path d="M0 0 C12.40129823 7.89173524 12.40129823 7.89173524 18 12.125 C23.67701994 16.35302396 29.45393919 20.40278141 35.3125 24.375 C41.52957067 28.59426049 47.67626238 32.88935303 53.75 37.3125 C61.59883748 43.02637691 69.54790376 48.58644021 77.52661133 54.1171875 C84.03201524 58.62716556 90.50998929 63.17319574 96.96728516 67.75170898 C102.60238295 71.73916962 108.28813941 75.6505134 114.00170898 79.5246582 C116.50762938 81.23293303 118.8500885 82.8500885 121 85 C121.26399803 87.32930088 121.26399803 87.32930088 121.28329468 90.30506897 C121.29497177 91.43072266 121.30664886 92.55637634 121.31867981 93.71614075 C121.32099106 94.95716049 121.32330231 96.19818024 121.32568359 97.47680664 C121.34040459 99.43065781 121.34040459 99.43065781 121.35542297 101.42398071 C121.38584003 105.75270477 121.39380651 110.08133792 121.3984375 114.41015625 C121.39952153 115.14706467 121.40060555 115.8839731 121.40172243 116.64321208 C121.41138082 123.59662572 121.41293824 130.5499954 121.39485741 137.50339603 C121.37223951 146.38990705 121.38948687 155.27430897 121.46204317 164.16056734 C121.50976844 170.41237415 121.51144278 176.66319399 121.47943556 182.91509527 C121.46155376 186.64703645 121.46359393 190.37642739 121.51508713 194.10811043 C121.57147451 198.27983358 121.53254018 202.44558813 121.48583984 206.61743164 C121.53181557 208.45770683 121.53181557 208.45770683 121.57872009 210.3351593 C121.44961396 215.65439746 121.19252874 218.75544963 117.42271805 222.68971062 C114.37085786 225.00256894 111.27627966 227.02168726 108 229 C106.15806636 230.28331632 104.32323029 231.57696625 102.5 232.88671875 C100.66816518 234.15581154 98.83479468 235.4226902 97 236.6875 C94.98289305 238.08437572 92.96596927 239.48151598 90.94921875 240.87890625 C89.95067871 241.57000488 88.95213867 242.26110352 87.92333984 242.97314453 C83.54336118 246.0099395 79.17704956 249.06608863 74.8125 252.125 C73.99974609 252.69436279 73.18699219 253.26372559 72.34960938 253.8503418 C70.71688204 254.99419264 69.08423192 256.13815369 67.45166016 257.28222656 C63.30213572 260.1896209 59.15097694 263.09468001 55 266 C53.33332569 267.16665575 51.66665902 268.33332241 50 269.5 C46.66666667 271.83333333 43.33333333 274.16666667 40 276.5 C39.1737915 277.07838623 38.34758301 277.65677246 37.49633789 278.25268555 C35.84203139 279.4106192 34.18757357 280.56833671 32.53295898 281.72583008 C28.17586868 284.77428862 23.82204512 287.82728009 19.47265625 290.88671875 C18.56708984 291.52287109 17.66152344 292.15902344 16.72851562 292.81445312 C14.99577055 294.03181761 13.26394705 295.25049525 11.53320312 296.47070312 C10.75009766 297.02048828 9.96699219 297.57027344 9.16015625 298.13671875 C8.47574463 298.61842529 7.79133301 299.10013184 7.08618164 299.59643555 C4.77879762 301.14882299 2.38468271 302.56919038 0 304 C0 203.68 0 103.36 0 0 Z " fill="#B3B3B3" transform="translate(324,412)"/>
<path d="M0 0 C0 100.32 0 200.64 0 304 C-6.74344555 299.70871647 -13.27796734 295.47030641 -19.6875 290.75 C-25.36557834 286.60951149 -31.07144404 282.52538413 -36.875 278.5625 C-42.86003207 274.47496028 -48.8151528 270.34762719 -54.75 266.1875 C-55.59030762 265.598479 -56.43061523 265.00945801 -57.29638672 264.40258789 C-59.00956009 263.20134297 -60.72261286 261.99992604 -62.43554688 260.79833984 C-66.62173131 257.86275011 -70.81103427 254.93161879 -75 252 C-75.82032715 251.42564209 -76.6406543 250.85128418 -77.48583984 250.25952148 C-81.72606859 247.29069636 -85.96749386 244.32360347 -90.2109375 241.359375 C-97.88826918 235.99469251 -105.56160408 230.62516473 -113.1875 225.1875 C-113.76999512 224.77274414 -114.35249023 224.35798828 -114.95263672 223.93066406 C-118.87614196 221.12385804 -118.87614196 221.12385804 -120 220 C-120.13248148 218.25790209 -120.19575286 216.51051048 -120.23223877 214.76376343 C-120.25792435 213.62817993 -120.28360992 212.49259644 -120.31007385 211.32260132 C-120.33311081 210.06549347 -120.35614777 208.80838562 -120.37988281 207.51318359 C-120.42123604 205.54010223 -120.42123604 205.54010223 -120.46342468 203.52716064 C-120.71268972 191.38049541 -120.88679016 179.23213587 -121.04321671 167.08395958 C-121.15986302 158.10287061 -121.31230926 149.12388702 -121.5115273 140.14424264 C-121.6484157 133.8319601 -121.74292268 127.51987123 -121.80661082 121.20643103 C-121.84589322 117.43512147 -121.90407981 113.66630872 -122.00839996 109.89619064 C-122.10589004 106.34486874 -122.15076404 102.79667527 -122.15607643 99.2440567 C-122.17232338 97.3255534 -122.24338631 95.40775734 -122.31626892 93.49057007 C-122.29155414 89.99661077 -122.15902057 87.29923451 -121 84 C-117.68769532 80.84043742 -114.08975301 78.98520364 -110 77 C-108.58223668 76.06646927 -107.17891796 75.10978669 -105.8046875 74.11328125 C-105.16080078 73.65630859 -104.51691406 73.19933594 -103.85351562 72.72851562 C-103.20060547 72.26123047 -102.54769531 71.79394531 -101.875 71.3125 C-100.4036961 70.26685635 -98.93234044 69.22128552 -97.4609375 68.17578125 C-96.72198242 67.64936035 -95.98302734 67.12293945 -95.22167969 66.58056641 C-91.65516761 64.04324781 -88.07721296 61.52219765 -84.5 59 C-83.07935938 57.99749177 -81.65878651 56.99488752 -80.23828125 55.9921875 C-79.53654785 55.49686523 -78.83481445 55.00154297 -78.11181641 54.49121094 C-76.02587606 53.01827179 -73.94058485 51.54441819 -71.85546875 50.0703125 C-63.40242303 44.09597943 -54.93140407 38.14800966 -46.44873047 32.21582031 C-38.99507414 27.00128089 -31.56146701 21.75877346 -24.13378906 16.50732422 C-21.85870676 14.90018942 -19.58187615 13.29555498 -17.3046875 11.69140625 C-16.53213623 11.14693848 -15.75958496 10.6024707 -14.96362305 10.04150391 C-13.48623163 9.00037319 -12.00854695 7.95965845 -10.53051758 6.91943359 C-7.85292895 5.03161866 -5.1895583 3.1442358 -2.58203125 1.16015625 C-1 0 -1 0 0 0 Z " fill="#B3B3B3" transform="translate(756,412)"/>
</svg>
